<?xml version="1.0" encoding="utf-8"?>
<!-- Generator: Adobe Illustrator 21.1.0, SVG Export Plug-In . SVG Version: 6.00 Build 0)  -->
<svg version="1.1" id="Layer_1" xmlns="http://www.w3.org/2000/svg" xmlns:xlink="http://www.w3.org/1999/xlink" x="0px" y="0px"
	 viewBox="0 0 110 65" style="enable-background:new 0 0 110 65;" xml:space="preserve">
<style type="text/css">
	.st0{fill:#24B2C7;}
</style>
<g>
	<rect x="455.6" y="-176.5" class="st0" width="8" height="1.1"/>
	<polygon class="st0" points="451.9,-170 450.7,-170.1 450.8,-171.1 450.8,-172 450.9,-172.4 451,-172.9 451.2,-173.3 451.4,-173.7 
		451.6,-174 451.9,-174.4 452.2,-174.7 452.5,-175.1 452.8,-175.4 453.2,-175.6 453.6,-175.8 454,-176 454.4,-176.2 454.8,-176.3 
		455.3,-176.4 455.7,-176.5 456.7,-176.5 456.7,-175.3 455.8,-175.3 455.4,-175.3 455.1,-175.2 454.8,-175.1 454.4,-175 
		454.1,-174.8 453.8,-174.6 453.5,-174.4 453.3,-174.2 453,-174 452.8,-173.7 452.6,-173.4 452.4,-173.1 452.2,-172.8 452.1,-172.5 
		452,-172.1 452,-171.8 451.9,-171 	"/>
	<rect x="450.7" y="-171.2" class="st0" width="1.1" height="7.2"/>
	<polygon class="st0" points="456.7,-159.1 455.7,-159.2 455.2,-159.2 454.8,-159.3 454.4,-159.4 453.9,-159.6 453.5,-159.8 
		453.2,-160 452.8,-160.3 452.5,-160.6 452.1,-160.9 451.9,-161.2 451.6,-161.6 451.4,-162 451.2,-162.4 451,-162.8 450.9,-163.2 
		450.8,-163.7 450.8,-164.1 450.7,-165.1 451.9,-165.1 451.9,-164.2 451.9,-163.8 452,-163.5 452.1,-163.2 452.2,-162.8 
		452.4,-162.5 452.6,-162.2 452.8,-161.9 453,-161.7 453.3,-161.4 453.5,-161.2 453.8,-161 454.1,-160.8 454.4,-160.6 454.8,-160.5 
		455.1,-160.4 455.4,-160.3 455.8,-160.3 456.7,-160.3 	"/>
	<rect x="455.6" y="-160.3" class="st0" width="8.2" height="1.1"/>
</g>
<g>
	<rect x="375" y="-197.7" class="st0" width="7.3" height="1.1"/>
	<polygon class="st0" points="386,-191.7 386,-192.6 385.9,-193 385.9,-193.3 385.8,-193.6 385.6,-194 385.5,-194.3 385.3,-194.6 
		385.1,-194.9 384.9,-195.1 384.6,-195.4 384.4,-195.6 384.1,-195.8 383.8,-196 383.5,-196.2 383.1,-196.3 382.8,-196.4 
		382.4,-196.5 382.1,-196.5 381.2,-196.5 381.2,-197.7 382.2,-197.6 382.7,-197.6 383.1,-197.5 383.5,-197.4 383.9,-197.2 
		384.3,-197 384.7,-196.8 385.1,-196.5 385.4,-196.2 385.7,-195.9 386,-195.6 386.3,-195.2 386.5,-194.8 386.7,-194.4 386.9,-194 
		387,-193.6 387.1,-193.1 387.1,-192.7 387.2,-191.7 	"/>
	<polygon class="st0" points="381.2,-186.9 381.2,-188 382.1,-188 382.4,-188.1 382.8,-188.2 383.1,-188.3 383.5,-188.4 
		383.8,-188.5 384.1,-188.7 384.4,-188.9 384.6,-189.1 384.9,-189.4 385.1,-189.7 385.3,-189.9 385.5,-190.3 385.6,-190.6 
		385.8,-190.9 385.9,-191.2 385.9,-191.6 386,-191.9 386,-192.9 387.2,-192.8 387.1,-191.8 387.1,-191.4 387,-190.9 386.8,-190.5 
		386.7,-190.1 386.5,-189.7 386.3,-189.3 386,-188.9 385.7,-188.6 385.4,-188.3 385,-188 384.7,-187.7 384.3,-187.5 383.9,-187.3 
		383.5,-187.2 383.1,-187 382.6,-186.9 382.2,-186.9 	"/>
	<rect x="376.4" y="-188" class="st0" width="6" height="1.1"/>
	<polygon class="st0" points="363,-172.4 361.9,-172.4 361.9,-173.7 362,-174.5 362.1,-175.2 362.2,-175.9 362.3,-176.7 
		362.5,-177.4 362.8,-178.1 363,-178.8 363.3,-179.4 363.7,-180.1 364,-180.7 364.4,-181.4 364.9,-182 365.3,-182.5 365.8,-183.1 
		366.3,-183.6 366.8,-184.1 367.4,-184.6 368,-185.1 368.6,-185.5 369.2,-185.9 369.8,-186.3 370.5,-186.6 371.2,-186.9 
		371.9,-187.1 372.6,-187.4 373.3,-187.6 374,-187.7 374.7,-187.9 375.5,-188 376.2,-188 377.5,-188 377.5,-186.9 376.2,-186.9 
		375.6,-186.8 374.9,-186.7 374.2,-186.6 373.6,-186.5 372.9,-186.3 372.2,-186.1 371.6,-185.8 371,-185.5 370.4,-185.2 
		369.8,-184.9 369.2,-184.5 368.7,-184.1 368.1,-183.7 367.6,-183.3 367.1,-182.8 366.6,-182.3 366.2,-181.8 365.8,-181.3 
		365.4,-180.7 365,-180.1 364.7,-179.5 364.4,-178.9 364.1,-178.3 363.9,-177.7 363.6,-177 363.5,-176.4 363.3,-175.7 363.2,-175 
		363.1,-174.4 363.1,-173.7 	"/>
	<rect x="361.9" y="-173.6" class="st0" width="1.1" height="12.9"/>
	<polygon class="st0" points="377.5,-146.2 376.2,-146.2 375.4,-146.2 374.7,-146.3 374,-146.5 373.3,-146.6 372.5,-146.8 
		371.8,-147.1 371.2,-147.3 370.5,-147.6 369.8,-148 369.2,-148.3 368.6,-148.7 368,-149.1 367.4,-149.6 366.8,-150.1 366.3,-150.6 
		365.8,-151.1 365.3,-151.7 364.8,-152.3 364.4,-152.9 364,-153.5 363.7,-154.1 363.3,-154.8 363,-155.5 362.8,-156.2 362.5,-156.9 
		362.3,-157.6 362.2,-158.3 362.1,-159 362,-159.7 361.9,-160.5 361.9,-161.8 363,-161.8 363.1,-160.5 363.1,-159.8 363.2,-159.2 
		363.3,-158.5 363.5,-157.8 363.6,-157.2 363.9,-156.5 364.1,-155.9 364.4,-155.3 364.7,-154.7 365,-154.1 365.4,-153.5 
		365.8,-152.9 366.2,-152.4 366.6,-151.9 367.1,-151.4 367.6,-150.9 368.1,-150.5 368.7,-150 369.2,-149.7 369.8,-149.3 370.4,-149 
		371,-148.7 371.6,-148.4 372.2,-148.1 372.9,-147.9 373.6,-147.7 374.2,-147.6 374.9,-147.5 375.6,-147.4 376.2,-147.3 
		377.5,-147.3 	"/>
	<rect x="376.4" y="-147.3" class="st0" width="15.8" height="1.1"/>
</g>
<g>
	<rect x="430.4" y="-160.3" class="st0" width="7.6" height="1.1"/>
	<polygon class="st0" points="431.5,-159.1 430.5,-159.2 430.1,-159.2 429.7,-159.3 429.2,-159.4 428.8,-159.6 428.4,-159.8 
		428,-160 427.7,-160.3 427.3,-160.6 427,-160.9 426.7,-161.2 426.5,-161.6 426.2,-162 426.1,-162.4 425.9,-162.8 425.8,-163.2 
		425.7,-163.7 425.6,-164.1 425.6,-165.1 426.7,-165.1 426.8,-164.2 426.8,-163.8 426.9,-163.5 427,-163.2 427.1,-162.8 
		427.3,-162.5 427.4,-162.2 427.6,-161.9 427.9,-161.7 428.1,-161.4 428.4,-161.2 428.7,-161 429,-160.8 429.3,-160.6 429.6,-160.5 
		430,-160.4 430.3,-160.3 430.7,-160.3 431.6,-160.3 	"/>
	<rect x="425.6" y="-171.7" class="st0" width="1.1" height="7.7"/>
	<polygon class="st0" points="426.7,-170.5 425.6,-170.5 425.6,-171.5 425.7,-172 425.8,-172.4 425.9,-172.9 426.1,-173.3 
		426.3,-173.7 426.5,-174 426.8,-174.4 427,-174.7 427.4,-175.1 427.7,-175.4 428.1,-175.6 428.5,-175.8 428.9,-176 429.3,-176.2 
		429.7,-176.3 430.1,-176.4 430.6,-176.5 431.6,-176.5 431.6,-175.3 430.6,-175.3 430.3,-175.3 430,-175.2 429.6,-175.1 429.3,-175 
		429,-174.8 428.7,-174.6 428.4,-174.4 428.1,-174.2 427.9,-174 427.6,-173.7 427.4,-173.4 427.3,-173.1 427.1,-172.8 427,-172.5 
		426.9,-172.1 426.8,-171.8 426.8,-171.4 	"/>
	<rect x="430.4" y="-176.5" class="st0" width="6" height="1.1"/>
	<polygon class="st0" points="440.1,-170.5 440.1,-171.4 440,-171.8 439.9,-172.1 439.8,-172.5 439.7,-172.8 439.6,-173.1 
		439.4,-173.4 439.2,-173.7 438.9,-174 438.7,-174.2 438.4,-174.4 438.1,-174.6 437.8,-174.8 437.5,-175 437.2,-175.1 436.9,-175.2 
		436.5,-175.3 436.2,-175.3 435.2,-175.3 435.3,-176.5 436.3,-176.5 436.7,-176.4 437.2,-176.3 437.6,-176.2 438,-176 438.4,-175.8 
		438.8,-175.6 439.2,-175.3 439.5,-175 439.8,-174.7 440.1,-174.4 440.3,-174 440.6,-173.6 440.8,-173.2 440.9,-172.8 441.1,-172.4 
		441.1,-171.9 441.2,-171.5 441.2,-170.5 	"/>
	<rect x="440.1" y="-171.7" class="st0" width="1.1" height="9.8"/>
	<polygon class="st0" points="455.7,-147.5 454.3,-147.6 453.6,-147.6 452.9,-147.7 452.2,-147.8 451.4,-148 450.7,-148.2 
		450,-148.4 449.3,-148.7 448.7,-149 448,-149.3 447.4,-149.7 446.7,-150.1 446.1,-150.5 445.6,-151 445,-151.5 444.5,-152 
		444,-152.5 443.5,-153.1 443,-153.6 442.6,-154.2 442.2,-154.9 441.8,-155.5 441.5,-156.2 441.2,-156.8 440.9,-157.5 440.7,-158.2 
		440.5,-158.9 440.3,-159.7 440.2,-160.4 440.1,-161.1 440.1,-161.9 440,-163.1 441.2,-163.2 441.2,-161.9 441.3,-161.2 
		441.4,-160.5 441.5,-159.9 441.6,-159.2 441.8,-158.6 442,-157.9 442.3,-157.3 442.5,-156.6 442.9,-156 443.2,-155.4 443.6,-154.9 
		443.9,-154.3 444.4,-153.8 444.8,-153.3 445.3,-152.8 445.8,-152.3 446.3,-151.9 446.8,-151.4 447.4,-151 448,-150.7 448.6,-150.3 
		449.2,-150 449.8,-149.8 450.4,-149.5 451.1,-149.3 451.7,-149.1 452.4,-149 453.1,-148.8 453.7,-148.8 454.4,-148.7 455.7,-148.7 
			"/>
	<rect x="454.5" y="-148.7" class="st0" width="14.1" height="1.1"/>
</g>
<g>
	<rect x="429.2" y="-148.7" class="st0" width="15.1" height="1.1"/>
	<polygon class="st0" points="430.3,-147.5 429,-147.6 428.3,-147.6 427.5,-147.7 426.8,-147.8 426.1,-148 425.4,-148.2 
		424.7,-148.4 424,-148.7 423.3,-149 422.6,-149.3 422,-149.7 421.4,-150.1 420.8,-150.5 420.2,-151 419.6,-151.5 419.1,-152 
		418.6,-152.5 418.1,-153.1 417.7,-153.6 417.2,-154.2 416.8,-154.9 416.5,-155.5 416.1,-156.2 415.8,-156.8 415.6,-157.5 
		415.3,-158.2 415.1,-158.9 415,-159.7 414.9,-160.4 414.8,-161.1 414.7,-161.9 414.7,-163.1 415.8,-163.2 415.9,-161.9 
		415.9,-161.2 416,-160.5 416.1,-159.9 416.3,-159.2 416.5,-158.6 416.7,-157.9 416.9,-157.3 417.2,-156.6 417.5,-156 417.8,-155.4 
		418.2,-154.9 418.6,-154.3 419,-153.8 419.4,-153.3 419.9,-152.8 420.4,-152.3 420.9,-151.9 421.5,-151.4 422,-151 422.6,-150.7 
		423.2,-150.3 423.8,-150 424.4,-149.8 425.1,-149.5 425.7,-149.3 426.4,-149.1 427,-149 427.7,-148.8 428.4,-148.8 429.1,-148.7 
		430.3,-148.7 	"/>
	<rect x="414.7" y="-171.7" class="st0" width="1.1" height="9.6"/>
	<polygon class="st0" points="414.7,-170.5 414.7,-171.4 414.6,-171.8 414.6,-172.1 414.5,-172.5 414.3,-172.8 414.2,-173.1 
		414,-173.4 413.8,-173.7 413.6,-174 413.3,-174.2 413.1,-174.4 412.8,-174.6 412.5,-174.8 412.2,-175 411.8,-175.1 411.5,-175.2 
		411.2,-175.3 410.8,-175.3 409.9,-175.3 409.9,-176.5 410.9,-176.5 411.4,-176.4 411.8,-176.3 412.2,-176.2 412.6,-176 413,-175.8 
		413.4,-175.6 413.8,-175.3 414.1,-175 414.4,-174.7 414.7,-174.4 415,-174 415.2,-173.6 415.4,-173.2 415.6,-172.8 415.7,-172.4 
		415.8,-171.9 415.8,-171.5 415.9,-170.5 	"/>
	<rect x="402.6" y="-176.5" class="st0" width="8.4" height="1.1"/>
</g>
<g>
	<rect x="414.7" y="-207.7" class="st0" width="1.1" height="15.5"/>
	<polygon class="st0" points="409.9,-187.4 409.9,-188.5 410.8,-188.5 411.2,-188.6 411.5,-188.7 411.8,-188.8 412.2,-188.9 
		412.5,-189 412.8,-189.2 413.1,-189.4 413.3,-189.7 413.6,-189.9 413.8,-190.2 414,-190.4 414.2,-190.8 414.3,-191.1 414.5,-191.4 
		414.6,-191.7 414.6,-192.1 414.7,-192.4 414.7,-193.4 415.9,-193.3 415.8,-192.3 415.8,-191.9 415.7,-191.4 415.6,-191 
		415.4,-190.6 415.2,-190.2 415,-189.8 414.7,-189.4 414.4,-189.1 414.1,-188.8 413.7,-188.5 413.4,-188.2 413,-188 412.6,-187.8 
		412.2,-187.7 411.8,-187.5 411.3,-187.5 410.9,-187.4 	"/>
	<rect x="402.5" y="-188.5" class="st0" width="8.5" height="1.1"/>
</g>
<g>
	<rect x="425.6" y="-207.7" class="st0" width="1.1" height="15.5"/>
	<polygon class="st0" points="431.6,-187.4 430.5,-187.4 430.1,-187.5 429.7,-187.6 429.2,-187.7 428.8,-187.8 428.4,-188 
		428,-188.3 427.7,-188.5 427.3,-188.8 427,-189.1 426.7,-189.5 426.5,-189.8 426.2,-190.2 426.1,-190.6 425.9,-191 425.8,-191.5 
		425.7,-191.9 425.6,-192.3 425.6,-193.3 426.7,-193.4 426.8,-192.4 426.8,-192.1 426.9,-191.7 427,-191.4 427.1,-191.1 
		427.3,-190.8 427.4,-190.4 427.6,-190.2 427.9,-189.9 428.1,-189.6 428.4,-189.4 428.7,-189.2 429,-189 429.3,-188.9 429.6,-188.8 
		430,-188.7 430.3,-188.6 430.7,-188.5 431.6,-188.5 	"/>
	<rect x="430.4" y="-188.5" class="st0" width="6.1" height="1.1"/>
	<polygon class="st0" points="435.4,-187.4 435.3,-188.5 436.3,-188.5 436.6,-188.6 437,-188.7 437.3,-188.8 437.6,-188.9 438,-189 
		438.3,-189.2 438.5,-189.4 438.8,-189.6 439.1,-189.9 439.3,-190.2 439.5,-190.4 439.7,-190.8 439.8,-191.1 439.9,-191.4 
		440,-191.7 440.1,-192.1 440.2,-192.4 440.2,-193.4 441.3,-193.3 441.3,-192.3 441.3,-191.9 441.2,-191.4 441,-191 440.9,-190.6 
		440.7,-190.2 440.4,-189.8 440.2,-189.4 439.9,-189.1 439.6,-188.8 439.2,-188.5 438.9,-188.2 438.5,-188 438.1,-187.8 
		437.7,-187.7 437.2,-187.5 436.8,-187.5 436.4,-187.4 	"/>
	<rect x="440.2" y="-207.7" class="st0" width="1.1" height="15.5"/>
</g>
<g>
	<rect x="451" y="-207.7" class="st0" width="1.1" height="15.5"/>
	<polygon class="st0" points="456.9,-187.4 455.9,-187.4 455.5,-187.5 455,-187.6 454.6,-187.7 454.2,-187.8 453.8,-188 
		453.4,-188.3 453,-188.5 452.7,-188.8 452.4,-189.1 452.1,-189.5 451.8,-189.8 451.6,-190.2 451.4,-190.6 451.3,-191 451.1,-191.5 
		451,-191.9 451,-192.4 450.9,-193.3 452.1,-193.4 452.1,-192.4 452.2,-192.1 452.3,-191.7 452.3,-191.4 452.5,-191.1 452.6,-190.8 
		452.8,-190.4 453,-190.2 453.2,-189.9 453.5,-189.6 453.8,-189.4 454,-189.2 454.3,-189 454.7,-188.9 455,-188.8 455.3,-188.7 
		455.7,-188.6 456,-188.5 457,-188.5 	"/>
	<rect x="455.8" y="-188.5" class="st0" width="7.9" height="1.1"/>
</g>
<g>
	<rect x="403.8" y="-158.9" class="st0" width="8.9" height="1.1"/>
	<polygon class="st0" points="404.9,-157.7 403.9,-157.8 403.5,-157.8 403,-157.9 402.6,-158.1 402.2,-158.2 401.8,-158.4 
		401.4,-158.7 401,-158.9 400.7,-159.2 400.4,-159.5 400.1,-159.9 399.8,-160.2 399.6,-160.6 399.4,-161 399.3,-161.4 399.1,-161.9 
		399,-162.3 399,-162.7 399,-163.7 400.1,-163.8 400.1,-162.8 400.2,-162.5 400.3,-162.1 400.3,-161.8 400.5,-161.5 400.6,-161.1 
		400.8,-160.8 401,-160.5 401.2,-160.3 401.5,-160 401.8,-159.8 402,-159.6 402.3,-159.4 402.7,-159.3 403,-159.1 403.3,-159 
		403.7,-159 404,-158.9 405,-158.9 	"/>
	<rect x="399" y="-195" class="st0" width="1.1" height="32.4"/>
	<polygon class="st0" points="399,-193.9 399,-195.1 398.9,-195.8 398.8,-196.5 398.7,-197.2 398.6,-197.8 398.4,-198.5 
		398.2,-199.1 397.9,-199.8 397.6,-200.4 397.3,-201 397,-201.6 396.6,-202.2 396.2,-202.7 395.8,-203.3 395.4,-203.8 394.9,-204.3 
		394.4,-204.7 393.9,-205.2 393.4,-205.6 392.8,-206 392.2,-206.4 391.6,-206.7 391,-207 390.4,-207.3 389.8,-207.5 389.1,-207.7 
		388.5,-207.9 387.8,-208.1 387.1,-208.2 386.4,-208.3 385.8,-208.3 384.5,-208.4 384.5,-209.5 385.8,-209.5 386.6,-209.4 
		387.3,-209.3 388,-209.2 388.7,-209 389.5,-208.8 390.2,-208.6 390.8,-208.3 391.5,-208 392.2,-207.7 392.8,-207.3 393.4,-206.9 
		394.1,-206.5 394.6,-206.1 395.2,-205.6 395.7,-205.1 396.2,-204.5 396.7,-204 397.2,-203.4 397.6,-202.8 398,-202.2 398.3,-201.5 
		398.7,-200.9 399,-200.2 399.2,-199.5 399.5,-198.8 399.7,-198.1 399.8,-197.4 400,-196.6 400,-195.9 400.1,-195.2 400.1,-193.9 	
		"/>
	<rect x="376.1" y="-209.5" class="st0" width="9.6" height="1.1"/>
</g>
<g>
	<rect x="403.8" y="-156.5" class="st0" width="9.8" height="1.1"/>
	<polygon class="st0" points="404.9,-155.3 403.8,-155.4 403.3,-155.4 402.8,-155.5 402.2,-155.6 401.7,-155.8 401.2,-156 
		400.8,-156.2 400.3,-156.5 399.9,-156.8 399.4,-157.1 399,-157.5 398.6,-157.8 398.3,-158.2 398,-158.7 397.7,-159.1 397.4,-159.6 
		397.2,-160.1 397,-160.6 396.8,-161.1 396.7,-161.6 396.6,-162.1 396.6,-162.6 396.5,-163.7 397.7,-163.8 397.7,-162.7 
		397.8,-162.3 397.8,-161.8 398,-161.4 398.1,-160.9 398.3,-160.5 398.5,-160.1 398.7,-159.7 398.9,-159.3 399.2,-159 399.5,-158.6 
		399.8,-158.3 400.2,-158 400.5,-157.7 400.9,-157.5 401.3,-157.2 401.7,-157.1 402.1,-156.9 402.6,-156.8 403,-156.6 403.5,-156.6 
		403.9,-156.5 405,-156.5 	"/>
	<rect x="396.6" y="-195" class="st0" width="1.1" height="32.4"/>
	<polygon class="st0" points="396.6,-193.9 396.5,-195.1 396.5,-195.7 396.4,-196.2 396.3,-196.8 396.2,-197.4 396,-198 
		395.8,-198.6 395.6,-199.1 395.3,-199.7 395,-200.2 394.7,-200.7 394.4,-201.2 394,-201.7 393.6,-202.1 393.2,-202.6 392.8,-203 
		392.3,-203.4 391.8,-203.7 391.3,-204.1 390.8,-204.4 390.3,-204.7 389.8,-204.9 389.2,-205.2 388.6,-205.4 388.1,-205.5 
		387.5,-205.7 386.9,-205.8 386.3,-205.9 385.7,-205.9 384.5,-205.9 384.5,-207.1 385.8,-207.1 386.4,-207 387.1,-206.9 
		387.7,-206.8 388.4,-206.6 389,-206.5 389.6,-206.2 390.2,-206 390.8,-205.7 391.4,-205.4 392,-205 392.5,-204.7 393,-204.3 
		393.5,-203.8 394,-203.4 394.5,-202.9 394.9,-202.4 395.3,-201.9 395.7,-201.3 396,-200.8 396.3,-200.2 396.6,-199.6 396.9,-199 
		397.1,-198.3 397.3,-197.7 397.4,-197.1 397.6,-196.4 397.6,-195.8 397.7,-195.1 397.7,-193.9 	"/>
	<rect x="376.1" y="-207.1" class="st0" width="9.6" height="1.1"/>
</g>
<g>
	<rect x="375" y="-200.1" class="st0" width="7.3" height="1.1"/>
	<polygon class="st0" points="388.4,-191.7 388.4,-192.7 388.3,-193.2 388.3,-193.6 388.2,-194.1 388,-194.5 387.9,-194.9 
		387.7,-195.3 387.4,-195.7 387.2,-196.1 386.9,-196.5 386.6,-196.8 386.3,-197.1 386,-197.4 385.6,-197.7 385.2,-198 384.8,-198.2 
		384.4,-198.4 384,-198.5 383.6,-198.7 383.1,-198.8 382.7,-198.9 382.2,-198.9 381.2,-198.9 381.2,-200.1 382.3,-200.1 382.8,-200 
		383.4,-199.9 383.9,-199.8 384.4,-199.6 384.9,-199.4 385.4,-199.2 385.8,-198.9 386.3,-198.6 386.7,-198.3 387.1,-198 
		387.5,-197.6 387.8,-197.2 388.1,-196.8 388.4,-196.3 388.7,-195.8 388.9,-195.4 389.1,-194.9 389.3,-194.4 389.4,-193.8 
		389.5,-193.3 389.5,-192.8 389.6,-191.7 	"/>
	<polygon class="st0" points="381.2,-184.4 381.2,-185.6 382.2,-185.6 382.7,-185.7 383.1,-185.8 383.6,-185.9 384,-186 
		384.4,-186.2 384.8,-186.4 385.2,-186.6 385.6,-186.8 386,-187.1 386.3,-187.4 386.6,-187.7 386.9,-188.1 387.2,-188.4 
		387.4,-188.8 387.7,-189.2 387.9,-189.6 388,-190 388.2,-190.5 388.3,-190.9 388.3,-191.4 388.4,-191.8 388.4,-192.9 389.6,-192.8 
		389.5,-191.7 389.5,-191.2 389.4,-190.7 389.3,-190.1 389.1,-189.6 388.9,-189.1 388.7,-188.7 388.4,-188.2 388.1,-187.8 
		387.8,-187.3 387.4,-186.9 387.1,-186.6 386.7,-186.2 386.2,-185.9 385.8,-185.6 385.3,-185.3 384.8,-185.1 384.3,-184.9 
		383.8,-184.7 383.3,-184.6 382.8,-184.5 382.3,-184.5 	"/>
	<rect x="376.4" y="-185.6" class="st0" width="6" height="1.1"/>
	<polygon class="st0" points="365.4,-172.4 364.3,-172.4 364.3,-173.7 364.4,-174.3 364.5,-175 364.6,-175.6 364.7,-176.3 
		364.9,-176.9 365.1,-177.5 365.4,-178.1 365.7,-178.7 366,-179.3 366.3,-179.9 366.7,-180.4 367.1,-180.9 367.6,-181.4 368,-181.9 
		368.5,-182.4 369,-182.8 369.5,-183.2 370.1,-183.6 370.6,-183.9 371.2,-184.2 371.8,-184.5 372.4,-184.8 373,-185 373.7,-185.2 
		374.3,-185.3 375,-185.5 375.6,-185.5 376.3,-185.6 377.5,-185.6 377.5,-184.5 376.3,-184.5 375.7,-184.4 375.1,-184.3 
		374.5,-184.2 374,-184.1 373.4,-183.9 372.8,-183.7 372.3,-183.5 371.7,-183.2 371.2,-182.9 370.7,-182.6 370.2,-182.3 
		369.7,-181.9 369.2,-181.5 368.8,-181.1 368.4,-180.7 368,-180.2 367.6,-179.7 367.3,-179.2 367,-178.7 366.7,-178.2 366.4,-177.7 
		366.2,-177.1 366,-176.5 365.8,-176 365.7,-175.4 365.6,-174.8 365.5,-174.2 365.5,-173.6 	"/>
	<rect x="364.3" y="-173.6" class="st0" width="1.1" height="12.9"/>
	<polygon class="st0" points="377.5,-148.6 376.2,-148.6 375.6,-148.6 374.9,-148.7 374.3,-148.9 373.6,-149 373,-149.2 
		372.4,-149.4 371.8,-149.7 371.2,-150 370.6,-150.3 370,-150.6 369.5,-151 369,-151.4 368.5,-151.8 368,-152.3 367.5,-152.8 
		367.1,-153.3 366.7,-153.8 366.3,-154.3 366,-154.9 365.7,-155.5 365.4,-156.1 365.1,-156.7 364.9,-157.3 364.7,-158 364.6,-158.6 
		364.5,-159.2 364.4,-159.9 364.3,-160.6 364.3,-161.8 365.4,-161.8 365.5,-160.6 365.5,-160 365.6,-159.4 365.7,-158.8 
		365.8,-158.2 366,-157.7 366.2,-157.1 366.4,-156.5 366.7,-156 367,-155.5 367.3,-155 367.6,-154.5 368,-154 368.4,-153.5 
		368.8,-153.1 369.2,-152.7 369.7,-152.3 370.2,-151.9 370.7,-151.6 371.2,-151.3 371.7,-151 372.3,-150.7 372.8,-150.5 
		373.4,-150.3 374,-150.1 374.5,-150 375.1,-149.9 375.7,-149.8 376.3,-149.7 377.5,-149.7 	"/>
	<rect x="376.4" y="-149.7" class="st0" width="13.4" height="1.1"/>
</g>
<g>
	<rect x="377.5" y="-156.5" class="st0" width="8.9" height="1.1"/>
	<polygon class="st0" points="378.6,-155.3 377.5,-155.4 377,-155.4 376.5,-155.5 375.9,-155.6 375.4,-155.8 374.9,-156 
		374.5,-156.2 374,-156.5 373.6,-156.8 373.1,-157.1 372.7,-157.5 372.4,-157.8 372,-158.2 371.7,-158.7 371.4,-159.1 371.1,-159.6 
		370.9,-160.1 370.7,-160.6 370.6,-161.1 370.4,-161.6 370.3,-162.1 370.3,-162.6 370.2,-163.7 371.4,-163.8 371.4,-162.7 
		371.5,-162.3 371.6,-161.8 371.7,-161.4 371.8,-160.9 372,-160.5 372.2,-160.1 372.4,-159.7 372.6,-159.3 372.9,-159 373.2,-158.6 
		373.5,-158.3 373.9,-158 374.2,-157.7 374.6,-157.5 375,-157.2 375.4,-157.1 375.8,-156.9 376.3,-156.8 376.7,-156.6 377.2,-156.6 
		377.6,-156.5 378.7,-156.5 	"/>
	<rect x="370.3" y="-171.7" class="st0" width="1.1" height="9.1"/>
	<polygon class="st0" points="371.4,-170.6 370.2,-170.6 370.3,-171.7 370.3,-172.2 370.4,-172.8 370.6,-173.3 370.7,-173.8 
		370.9,-174.3 371.2,-174.8 371.4,-175.2 371.7,-175.7 372,-176.1 372.4,-176.5 372.8,-176.9 373.2,-177.2 373.6,-177.5 374,-177.8 
		374.5,-178.1 375,-178.3 375.5,-178.5 376,-178.7 376.5,-178.8 377,-178.9 377.6,-178.9 378.6,-179 378.7,-177.8 377.6,-177.8 
		377.2,-177.7 376.7,-177.7 376.3,-177.6 375.8,-177.4 375.4,-177.3 375,-177.1 374.6,-176.8 374.2,-176.6 373.9,-176.3 373.5,-176 
		373.2,-175.7 372.9,-175.4 372.6,-175 372.4,-174.6 372.2,-174.2 372,-173.8 371.8,-173.4 371.7,-172.9 371.6,-172.5 371.5,-172.1 
		371.4,-171.6 	"/>
	<rect x="377.5" y="-179" class="st0" width="6" height="1.1"/>
	<polygon class="st0" points="389.6,-170.6 389.5,-171.6 389.5,-172.1 389.4,-172.5 389.3,-172.9 389.2,-173.4 389,-173.8 
		388.8,-174.2 388.6,-174.6 388.3,-175 388.1,-175.4 387.8,-175.7 387.4,-176 387.1,-176.3 386.7,-176.6 386.3,-176.8 386,-177.1 
		385.5,-177.3 385.1,-177.4 384.7,-177.6 384.2,-177.7 383.8,-177.7 383.3,-177.8 382.3,-177.8 382.3,-179 383.4,-178.9 384,-178.9 
		384.5,-178.8 385,-178.7 385.5,-178.5 386,-178.3 386.5,-178.1 387,-177.8 387.4,-177.5 387.8,-177.2 388.2,-176.8 388.6,-176.5 
		389,-176.1 389.3,-175.6 389.6,-175.2 389.8,-174.7 390.1,-174.2 390.3,-173.7 390.4,-173.2 390.5,-172.7 390.6,-172.2 
		390.7,-171.7 390.7,-170.6 	"/>
	<rect x="389.5" y="-171.7" class="st0" width="1.1" height="11.1"/>
	<polygon class="st0" points="402.7,-148.6 401.5,-148.6 400.8,-148.6 400.2,-148.7 399.5,-148.9 398.9,-149 398.3,-149.2 
		397.6,-149.4 397,-149.7 396.4,-150 395.8,-150.3 395.3,-150.6 394.7,-151 394.2,-151.4 393.7,-151.8 393.2,-152.3 392.8,-152.8 
		392.4,-153.3 391.9,-153.8 391.6,-154.3 391.2,-154.9 390.9,-155.5 390.6,-156.1 390.4,-156.7 390.2,-157.3 390,-158 389.8,-158.6 
		389.7,-159.2 389.6,-159.9 389.6,-160.6 389.5,-161.8 390.7,-161.8 390.7,-160.6 390.8,-160 390.8,-159.4 390.9,-158.8 
		391.1,-158.2 391.3,-157.7 391.5,-157.1 391.7,-156.5 391.9,-156 392.2,-155.5 392.6,-155 392.9,-154.5 393.3,-154 393.6,-153.5 
		394.1,-153.1 394.5,-152.7 394.9,-152.3 395.4,-151.9 395.9,-151.6 396.4,-151.3 397,-151 397.5,-150.7 398.1,-150.5 398.6,-150.3 
		399.2,-150.1 399.8,-150 400.4,-149.9 401,-149.8 401.6,-149.7 402.8,-149.7 	"/>
	<rect x="401.6" y="-149.7" class="st0" width="13.6" height="1.1"/>
</g>
<g>
	<rect x="417.1" y="-207.7" class="st0" width="1.1" height="15.5"/>
	<polygon class="st0" points="409.9,-184.9 409.9,-186.1 410.9,-186.1 411.4,-186.2 411.8,-186.3 412.3,-186.4 412.7,-186.5 
		413.1,-186.7 413.5,-186.9 413.9,-187.1 414.3,-187.3 414.7,-187.6 415,-187.9 415.3,-188.2 415.6,-188.6 415.9,-188.9 
		416.1,-189.3 416.4,-189.7 416.6,-190.1 416.7,-190.5 416.9,-191 417,-191.4 417,-191.9 417.1,-192.3 417.1,-193.4 418.3,-193.3 
		418.2,-192.2 418.2,-191.7 418.1,-191.2 418,-190.6 417.8,-190.1 417.6,-189.6 417.4,-189.2 417.1,-188.7 416.8,-188.3 
		416.5,-187.8 416.1,-187.4 415.8,-187.1 415.4,-186.7 414.9,-186.4 414.5,-186.1 414,-185.8 413.5,-185.6 413.1,-185.4 
		412.5,-185.3 412,-185.1 411.5,-185 411,-185 	"/>
	<rect x="402.5" y="-186.1" class="st0" width="8.5" height="1.1"/>
</g>
<g>
	<rect x="423.2" y="-207.7" class="st0" width="1.1" height="15.5"/>
	<polygon class="st0" points="431.6,-184.9 430.5,-185 429.9,-185 429.4,-185.1 428.9,-185.3 428.4,-185.4 427.9,-185.6 
		427.4,-185.9 426.9,-186.1 426.5,-186.4 426.1,-186.7 425.7,-187.1 425.3,-187.5 424.9,-187.9 424.6,-188.3 424.3,-188.7 
		424.1,-189.2 423.8,-189.7 423.6,-190.2 423.5,-190.7 423.4,-191.2 423.3,-191.7 423.2,-192.3 423.2,-193.3 424.3,-193.4 
		424.4,-192.3 424.4,-191.9 424.5,-191.4 424.6,-191 424.7,-190.5 424.9,-190.1 425.1,-189.7 425.3,-189.3 425.6,-188.9 
		425.8,-188.6 426.1,-188.2 426.5,-187.9 426.8,-187.6 427.2,-187.3 427.5,-187.1 427.9,-186.9 428.3,-186.7 428.8,-186.5 
		429.2,-186.4 429.6,-186.3 430.1,-186.2 430.5,-186.1 431.6,-186.1 	"/>
	<rect x="430.4" y="-186.1" class="st0" width="6.1" height="1.1"/>
	<polygon class="st0" points="435.4,-184.9 435.3,-186.1 436.4,-186.1 436.8,-186.2 437.3,-186.3 437.7,-186.4 438.2,-186.5 
		438.6,-186.7 439,-186.9 439.4,-187.1 439.8,-187.3 440.1,-187.6 440.5,-187.9 440.8,-188.2 441.1,-188.6 441.4,-188.9 
		441.6,-189.3 441.8,-189.7 442,-190.1 442.2,-190.5 442.3,-191 442.5,-191.4 442.5,-191.9 442.6,-192.3 442.6,-193.4 443.8,-193.3 
		443.7,-192.2 443.7,-191.7 443.6,-191.2 443.4,-190.6 443.3,-190.1 443.1,-189.6 442.9,-189.2 442.6,-188.7 442.3,-188.3 
		442,-187.8 441.6,-187.4 441.2,-187.1 440.8,-186.7 440.4,-186.4 440,-186.1 439.5,-185.8 439,-185.6 438.5,-185.4 438,-185.3 
		437.5,-185.1 437,-185 436.5,-185 	"/>
	<rect x="442.6" y="-207.7" class="st0" width="1.1" height="15.5"/>
</g>
<g>
	<rect x="429.2" y="-151.1" class="st0" width="13.1" height="1.1"/>
	<polygon class="st0" points="430.3,-149.9 429.1,-150 428.4,-150 427.7,-150.1 427.1,-150.2 426.4,-150.4 425.8,-150.6 
		425.2,-150.8 424.6,-151.1 424,-151.3 423.4,-151.7 422.9,-152 422.3,-152.4 421.8,-152.8 421.3,-153.2 420.8,-153.7 420.3,-154.2 
		419.9,-154.7 419.5,-155.2 419.1,-155.7 418.8,-156.3 418.5,-156.9 418.2,-157.5 417.9,-158.1 417.7,-158.7 417.5,-159.3 
		417.4,-160 417.3,-160.6 417.2,-161.3 417.1,-161.9 417.1,-163.1 418.2,-163.2 418.3,-162 418.3,-161.4 418.4,-160.8 418.5,-160.2 
		418.7,-159.6 418.8,-159 419,-158.5 419.3,-157.9 419.5,-157.4 419.8,-156.8 420.1,-156.3 420.5,-155.8 420.8,-155.4 421.2,-154.9 
		421.6,-154.5 422.1,-154.1 422.5,-153.7 423,-153.3 423.5,-153 424,-152.6 424.5,-152.4 425.1,-152.1 425.6,-151.9 426.2,-151.7 
		426.8,-151.5 427.4,-151.4 427.9,-151.2 428.5,-151.2 429.1,-151.1 430.3,-151.1 	"/>
	<rect x="417.1" y="-171.7" class="st0" width="1.1" height="9.6"/>
	<polygon class="st0" points="417.1,-170.5 417.1,-171.5 417,-172 417,-172.4 416.9,-172.9 416.7,-173.3 416.6,-173.7 416.4,-174.1 
		416.1,-174.5 415.9,-174.9 415.6,-175.3 415.3,-175.6 415,-175.9 414.7,-176.2 414.3,-176.5 413.9,-176.8 413.5,-177 413.1,-177.2 
		412.7,-177.4 412.3,-177.5 411.8,-177.6 411.4,-177.7 410.9,-177.7 409.9,-177.8 409.9,-178.9 411,-178.9 411.5,-178.8 
		412.1,-178.7 412.6,-178.6 413.1,-178.4 413.6,-178.2 414.1,-178 414.5,-177.7 415,-177.4 415.4,-177.1 415.8,-176.8 416.2,-176.4 
		416.5,-176 416.8,-175.6 417.1,-175.1 417.4,-174.7 417.6,-174.2 417.8,-173.7 418,-173.2 418.1,-172.7 418.2,-172.1 418.2,-171.6 
		418.3,-170.5 	"/>
	<rect x="402.6" y="-178.9" class="st0" width="8.4" height="1.1"/>
</g>
<g>
	<rect x="430.4" y="-157.9" class="st0" width="8.5" height="1.1"/>
	<polygon class="st0" points="431.6,-156.7 430.4,-156.8 429.9,-156.8 429.4,-156.9 428.9,-157 428.4,-157.2 427.9,-157.4 
		427.4,-157.6 426.9,-157.9 426.5,-158.2 426.1,-158.5 425.7,-158.8 425.3,-159.2 424.9,-159.6 424.6,-160.1 424.3,-160.5 
		424.1,-161 423.8,-161.4 423.6,-161.9 423.5,-162.4 423.4,-163 423.3,-163.5 423.2,-164 423.2,-165.1 424.3,-165.1 424.4,-164.1 
		424.4,-163.6 424.5,-163.2 424.6,-162.7 424.7,-162.3 424.9,-161.9 425.1,-161.5 425.3,-161.1 425.6,-160.7 425.8,-160.3 
		426.1,-160 426.5,-159.7 426.8,-159.4 427.2,-159.1 427.5,-158.9 427.9,-158.6 428.3,-158.4 428.8,-158.3 429.2,-158.1 429.6,-158 
		430.1,-157.9 430.5,-157.9 431.6,-157.9 	"/>
	<rect x="423.2" y="-171.7" class="st0" width="1.1" height="7.7"/>
	<polygon class="st0" points="424.3,-170.5 423.2,-170.5 423.2,-171.6 423.3,-172.2 423.4,-172.7 423.5,-173.2 423.7,-173.7 
		423.9,-174.2 424.1,-174.7 424.3,-175.1 424.6,-175.6 425,-176 425.3,-176.4 425.7,-176.8 426.1,-177.1 426.5,-177.5 427,-177.8 
		427.4,-178 427.9,-178.2 428.4,-178.4 428.9,-178.6 429.4,-178.7 430,-178.8 430.5,-178.9 431.6,-178.9 431.6,-177.8 430.5,-177.7 
		430.1,-177.7 429.6,-177.6 429.2,-177.5 428.8,-177.4 428.3,-177.2 427.9,-177 427.5,-176.8 427.2,-176.5 426.8,-176.2 
		426.5,-175.9 426.1,-175.6 425.8,-175.3 425.6,-174.9 425.3,-174.5 425.1,-174.1 424.9,-173.7 424.7,-173.3 424.6,-172.9 
		424.5,-172.4 424.4,-172 424.4,-171.5 	"/>
	<rect x="430.4" y="-178.9" class="st0" width="6" height="1.1"/>
	<polygon class="st0" points="442.5,-170.5 442.5,-171.5 442.4,-172 442.3,-172.4 442.2,-172.9 442.1,-173.3 441.9,-173.7 
		441.7,-174.1 441.5,-174.5 441.3,-174.9 441,-175.3 440.7,-175.6 440.4,-175.9 440,-176.2 439.7,-176.5 439.3,-176.8 438.9,-177 
		438.5,-177.2 438,-177.4 437.6,-177.5 437.2,-177.6 436.7,-177.7 436.3,-177.7 435.2,-177.8 435.3,-178.9 436.4,-178.9 
		436.9,-178.8 437.4,-178.7 437.9,-178.6 438.5,-178.4 438.9,-178.2 439.4,-178 439.9,-177.7 440.3,-177.4 440.8,-177.1 
		441.2,-176.8 441.5,-176.4 441.9,-176 442.2,-175.6 442.5,-175.1 442.8,-174.7 443,-174.2 443.2,-173.7 443.3,-173.2 443.5,-172.7 
		443.6,-172.1 443.6,-171.6 443.6,-170.5 	"/>
	<rect x="442.5" y="-171.7" class="st0" width="1.1" height="9.8"/>
	<polygon class="st0" points="455.7,-149.9 454.4,-150 453.8,-150 453.1,-150.1 452.5,-150.2 451.8,-150.4 451.2,-150.6 
		450.6,-150.8 450,-151.1 449.4,-151.3 448.8,-151.7 448.2,-152 447.7,-152.4 447.1,-152.8 446.6,-153.2 446.2,-153.7 445.7,-154.2 
		445.3,-154.6 444.9,-155.2 444.5,-155.7 444.2,-156.3 443.8,-156.9 443.6,-157.5 443.3,-158.1 443.1,-158.7 442.9,-159.3 
		442.7,-160 442.6,-160.6 442.5,-161.3 442.5,-161.9 442.5,-163.1 443.6,-163.2 443.6,-162 443.7,-161.4 443.8,-160.8 443.9,-160.2 
		444,-159.6 444.2,-159 444.4,-158.5 444.6,-157.9 444.9,-157.4 445.2,-156.8 445.5,-156.3 445.8,-155.8 446.2,-155.4 446.6,-154.9 
		447,-154.5 447.4,-154.1 447.9,-153.7 448.4,-153.3 448.8,-153 449.4,-152.6 449.9,-152.4 450.4,-152.1 451,-151.9 451.6,-151.7 
		452.1,-151.5 452.7,-151.4 453.3,-151.2 453.9,-151.2 454.5,-151.1 455.7,-151.1 	"/>
	<rect x="454.5" y="-151.1" class="st0" width="12.4" height="1.1"/>
</g>
<g>
	<rect x="448.6" y="-207.7" class="st0" width="1.1" height="15.5"/>
	<polygon class="st0" points="456.9,-184.9 455.8,-185 455.3,-185 454.8,-185.1 454.2,-185.3 453.7,-185.4 453.2,-185.6 
		452.8,-185.9 452.3,-186.1 451.8,-186.4 451.4,-186.7 451,-187.1 450.6,-187.5 450.3,-187.9 450,-188.3 449.7,-188.7 449.4,-189.2 
		449.2,-189.7 449,-190.2 448.8,-190.7 448.7,-191.2 448.6,-191.7 448.6,-192.3 448.5,-193.3 449.7,-193.4 449.7,-192.3 
		449.8,-191.9 449.8,-191.4 450,-191 450.1,-190.5 450.3,-190.1 450.5,-189.7 450.7,-189.3 450.9,-188.9 451.2,-188.6 451.5,-188.2 
		451.8,-187.9 452.2,-187.6 452.5,-187.3 452.9,-187.1 453.3,-186.9 453.7,-186.7 454.1,-186.5 454.6,-186.4 455,-186.3 
		455.5,-186.2 455.9,-186.1 457,-186.1 	"/>
	<rect x="455.8" y="-186.1" class="st0" width="7.9" height="1.1"/>
</g>
<g>
	<rect x="455.6" y="-178.9" class="st0" width="8" height="1.1"/>
	<polygon class="st0" points="449.5,-170 448.3,-170.1 448.3,-171.1 448.4,-172.2 448.5,-172.7 448.6,-173.2 448.8,-173.7 
		449,-174.2 449.2,-174.7 449.5,-175.2 449.8,-175.6 450.1,-176 450.4,-176.4 450.8,-176.8 451.2,-177.1 451.6,-177.5 452.1,-177.8 
		452.6,-178 453,-178.2 453.5,-178.4 454,-178.6 454.6,-178.7 455.1,-178.8 455.6,-178.9 456.7,-178.9 456.7,-177.8 455.7,-177.7 
		455.2,-177.7 454.8,-177.6 454.3,-177.5 453.9,-177.4 453.5,-177.2 453.1,-177 452.7,-176.8 452.3,-176.5 451.9,-176.2 
		451.6,-175.9 451.3,-175.6 451,-175.3 450.7,-174.9 450.4,-174.5 450.2,-174.1 450,-173.7 449.9,-173.3 449.7,-172.9 449.6,-172.4 
		449.5,-172 449.5,-170.6 	"/>
	<rect x="448.3" y="-171.2" class="st0" width="1.1" height="7.2"/>
	<polygon class="st0" points="456.7,-156.7 455.6,-156.8 455.1,-156.8 454.5,-156.9 454,-157 453.5,-157.2 453,-157.4 452.5,-157.6 
		452.1,-157.9 451.6,-158.2 451.2,-158.5 450.8,-158.8 450.4,-159.2 450.1,-159.6 449.7,-160 449.5,-160.5 449.2,-161 449,-161.5 
		448.8,-161.9 448.6,-162.5 448.5,-163 448.4,-163.5 448.3,-164 448.3,-165.1 449.5,-165.1 449.5,-164.1 449.5,-163.6 449.6,-163.2 
		449.7,-162.7 449.9,-162.3 450,-161.9 450.2,-161.5 450.4,-161.1 450.7,-160.7 451,-160.3 451.3,-160 451.6,-159.7 451.9,-159.4 
		452.3,-159.1 452.7,-158.9 453.1,-158.6 453.5,-158.4 453.9,-158.3 454.3,-158.1 454.8,-158 455.2,-157.9 455.7,-157.9 
		456.7,-157.9 	"/>
	<rect x="455.6" y="-157.9" class="st0" width="8.9" height="1.1"/>
</g>
<g>
	<rect x="377.5" y="-158.9" class="st0" width="7.9" height="1.1"/>
	<polygon class="st0" points="378.6,-157.7 377.6,-157.8 377.2,-157.8 376.7,-157.9 376.3,-158.1 375.9,-158.2 375.5,-158.4 
		375.1,-158.7 374.7,-158.9 374.4,-159.2 374.1,-159.5 373.8,-159.9 373.5,-160.2 373.3,-160.6 373.1,-161 373,-161.4 372.8,-161.9 
		372.8,-162.3 372.7,-162.7 372.7,-163.7 373.8,-163.8 373.8,-162.8 373.9,-162.5 374,-162.1 374.1,-161.8 374.2,-161.5 
		374.3,-161.1 374.5,-160.8 374.7,-160.5 375,-160.3 375.2,-160 375.5,-159.8 375.8,-159.6 376.1,-159.4 376.4,-159.3 376.7,-159.1 
		377,-159 377.4,-159 377.7,-158.9 378.7,-158.9 	"/>
	<rect x="372.7" y="-171.7" class="st0" width="1.1" height="9.1"/>
	<polygon class="st0" points="373.8,-170.6 372.7,-170.6 372.7,-171.6 372.8,-172.1 372.8,-172.5 373,-172.9 373.1,-173.3 
		373.3,-173.7 373.6,-174.1 373.8,-174.5 374.1,-174.8 374.4,-175.1 374.8,-175.4 375.1,-175.7 375.5,-175.9 375.9,-176.1 
		376.3,-176.3 376.8,-176.4 377.2,-176.5 377.7,-176.5 378.6,-176.6 378.7,-175.4 377.7,-175.4 377.4,-175.3 377,-175.3 
		376.7,-175.2 376.4,-175 376.1,-174.9 375.8,-174.7 375.5,-174.5 375.2,-174.3 374.9,-174 374.7,-173.8 374.5,-173.5 374.3,-173.2 
		374.2,-172.9 374.1,-172.5 374,-172.2 373.9,-171.8 373.8,-171.5 	"/>
	<rect x="377.5" y="-176.5" class="st0" width="6" height="1.1"/>
	<polygon class="st0" points="387.2,-170.6 387.1,-171.5 387.1,-171.8 387,-172.2 386.9,-172.5 386.8,-172.9 386.6,-173.2 
		386.4,-173.5 386.2,-173.8 386,-174 385.8,-174.3 385.5,-174.5 385.2,-174.7 384.9,-174.9 384.6,-175 384.3,-175.2 383.9,-175.3 
		383.6,-175.3 383.2,-175.4 382.3,-175.4 382.3,-176.6 383.4,-176.5 383.8,-176.5 384.2,-176.4 384.7,-176.2 385.1,-176.1 
		385.5,-175.9 385.9,-175.7 386.2,-175.4 386.6,-175.1 386.9,-174.8 387.2,-174.4 387.4,-174.1 387.6,-173.7 387.8,-173.3 
		388,-172.9 388.1,-172.5 388.2,-172 388.3,-171.6 388.3,-170.6 	"/>
	<rect x="387.1" y="-171.7" class="st0" width="1.1" height="11.1"/>
	<polygon class="st0" points="402.7,-146.2 401.4,-146.2 400.7,-146.2 399.9,-146.3 399.2,-146.5 398.5,-146.6 397.8,-146.8 
		397.1,-147.1 396.4,-147.3 395.7,-147.6 395.1,-148 394.4,-148.3 393.8,-148.7 393.2,-149.1 392.6,-149.6 392.1,-150.1 
		391.5,-150.6 391,-151.1 390.5,-151.7 390.1,-152.3 389.7,-152.9 389.3,-153.5 388.9,-154.1 388.6,-154.8 388.3,-155.5 388,-156.2 
		387.8,-156.9 387.6,-157.6 387.4,-158.3 387.3,-159 387.2,-159.7 387.2,-160.5 387.1,-161.8 388.3,-161.8 388.3,-160.5 
		388.4,-159.8 388.4,-159.2 388.6,-158.5 388.7,-157.8 388.9,-157.2 389.1,-156.5 389.3,-155.9 389.6,-155.3 389.9,-154.7 
		390.3,-154.1 390.6,-153.5 391,-152.9 391.4,-152.4 391.9,-151.9 392.4,-151.4 392.8,-150.9 393.4,-150.5 393.9,-150 394.5,-149.7 
		395,-149.3 395.6,-149 396.2,-148.7 396.9,-148.4 397.5,-148.1 398.1,-147.9 398.8,-147.7 399.5,-147.6 400.1,-147.5 400.8,-147.4 
		401.5,-147.3 402.8,-147.3 	"/>
	<rect x="401.6" y="-147.3" class="st0" width="15.7" height="1.1"/>
</g>
<g>
	<polygon class="st0" points="104.1,51.8 96.3,51.8 95.9,51.8 95.4,51.7 94.9,51.6 94.5,51.5 94,51.3 93.6,51.1 93.2,50.9 
		92.8,50.6 92.5,50.3 92.1,50 91.8,49.6 91.6,49.2 91.3,48.8 91.1,48.4 90.9,47.9 90.8,47.5 90.7,47 90.7,46.5 90.6,46.1 90.6,39.9 
		90.7,39.5 90.7,38.5 90.8,38 91,37.6 91.1,37.1 91.4,36.7 91.6,36.3 91.9,35.9 92.2,35.6 92.5,35.2 92.9,34.9 93.3,34.7 93.7,34.4 
		94.1,34.2 94.5,34 95,33.9 95.5,33.8 95.9,33.8 96.4,33.7 104.2,33.7 104.2,35.4 96.4,35.4 96,35.4 95.7,35.4 95.4,35.5 95,35.6 
		94.7,35.7 94.4,35.9 94.1,36 93.9,36.2 93.6,36.5 93.4,36.7 93.1,37 92.9,37.2 92.8,37.5 92.6,37.8 92.5,38.1 92.4,38.5 92.3,38.8 
		92.3,39.6 92.3,39.9 92.3,46.1 92.3,46.4 92.3,46.8 92.4,47.1 92.5,47.4 92.6,47.7 92.8,48 92.9,48.3 93.1,48.6 93.4,48.9 
		93.6,49.1 93.9,49.3 94.1,49.5 94.4,49.7 94.7,49.8 95,50 95.4,50.1 95.7,50.1 96,50.2 96.4,50.2 104.1,50.2 	"/>
</g>
<g>
	<polygon class="st0" points="30.1,65 15.9,65 15.1,65 14.3,64.9 13.6,64.8 12.8,64.7 12.1,64.5 11.4,64.3 10.6,64.1 9.9,63.8 
		9.2,63.5 8.6,63.2 7.9,62.8 7.3,62.4 6.6,61.9 6,61.5 5.5,61 4.9,60.4 4.4,59.9 3.9,59.3 3.4,58.7 3,58.1 2.6,57.4 2.2,56.8 
		1.9,56.1 1.5,55.4 1.3,54.7 1,54 0.8,53.2 0.7,52.5 0.5,51.7 0.5,51 0.4,50.2 0.4,49.5 0.4,37.5 0.4,36.7 0.5,36 0.5,35.2 
		0.7,34.5 0.8,33.7 1,33 1.3,32.3 1.6,31.6 1.9,30.9 2.2,30.2 2.6,29.5 3,28.9 3.4,28.3 3.9,27.7 4.4,27.1 4.9,26.5 5.5,26 
		6.1,25.5 6.7,25.1 7.3,24.6 7.9,24.2 8.6,23.8 9.3,23.5 10,23.2 10.7,22.9 11.4,22.7 12.1,22.5 12.9,22.3 13.6,22.2 14.4,22.1 
		15.1,22 15.9,22 20.8,22 21.1,22 21.5,22 21.8,21.9 22.1,21.8 22.4,21.7 22.7,21.5 23,21.3 23.3,21.2 23.6,20.9 23.8,20.7 24,20.4 
		24.2,20.2 24.4,19.9 24.5,19.6 24.6,19.3 24.7,18.9 24.8,18.6 24.9,18.3 24.9,17.9 24.9,17.6 24.8,17.3 24.7,16.9 24.6,16.6 
		24.5,16.3 24.4,16 24.2,15.7 24,15.4 23.8,15.2 23.6,14.9 23.3,14.7 23,14.5 22.7,14.3 22.4,14.2 22.1,14.1 21.8,14 21.5,13.9 
		21.1,13.9 20.8,13.9 14.7,13.9 14.7,12.2 20.8,12.2 21.3,12.2 21.8,12.3 22.2,12.4 22.7,12.5 23.1,12.7 23.5,12.9 23.9,13.2 
		24.3,13.4 24.7,13.8 25,14.1 25.3,14.5 25.6,14.8 25.8,15.2 26,15.7 26.2,16.1 26.3,16.6 26.4,17 26.5,17.5 26.5,17.9 26.5,18.4 
		26.4,18.9 26.3,19.4 26.2,19.8 26,20.3 25.8,20.7 25.6,21.1 25.3,21.5 25,21.8 24.6,22.2 24.3,22.5 23.9,22.7 23.5,23 23.1,23.2 
		22.6,23.3 22.2,23.5 21.7,23.6 21.2,23.6 20.8,23.6 15.9,23.6 15.2,23.7 14.5,23.7 13.8,23.8 13.2,23.9 12.5,24.1 11.9,24.2 
		11.2,24.5 10.6,24.7 10,25 9.3,25.3 8.8,25.6 8.2,26 7.6,26.4 7.1,26.8 6.6,27.2 6.1,27.7 5.6,28.2 5.2,28.7 4.7,29.3 4.3,29.8 
		4,30.4 3.6,31 3.3,31.6 3.1,32.2 2.8,32.8 2.6,33.5 2.4,34.2 2.3,34.8 2.2,35.5 2.1,36.2 2,36.8 2,37.5 2,49.5 2,50.2 2.1,50.9 
		2.2,51.5 2.3,52.2 2.4,52.9 2.6,53.5 2.8,54.2 3.1,54.8 3.3,55.4 3.6,56 4,56.6 4.3,57.2 4.7,57.8 5.2,58.3 5.6,58.8 6.1,59.3 
		6.6,59.8 7.1,60.2 7.6,60.6 8.2,61 8.8,61.4 9.3,61.7 10,62 10.6,62.3 11.2,62.6 11.9,62.8 12.5,63 13.2,63.1 13.8,63.2 14.5,63.3 
		15.2,63.4 15.9,63.4 30.1,63.4 	"/>
</g>
<g>
	<polygon class="st0" points="109,63.6 95.3,63.6 94.5,63.6 93.8,63.5 93,63.4 92.3,63.3 91.5,63.1 90.8,62.9 90.1,62.7 89.4,62.4 
		88.7,62.1 88,61.8 87.3,61.4 86.7,61 86,60.5 85.5,60.1 84.9,59.6 84.3,59 83.8,58.5 83.3,57.9 82.8,57.3 82.4,56.7 82,56 
		81.6,55.4 81.3,54.7 81,54 80.7,53.3 80.5,52.6 80.3,51.8 80.1,51.1 80,50.3 79.9,49.6 79.8,48.8 79.8,48.2 79.8,39.5 79.8,39.1 
		79.7,38.8 79.7,38.5 79.6,38.1 79.5,37.8 79.3,37.5 79.1,37.2 78.9,37 78.7,36.7 78.5,36.5 78.2,36.2 77.9,36 77.7,35.9 77.4,35.7 
		77,35.6 76.7,35.5 76.4,35.4 76.1,35.4 75.7,35.4 70.8,35.4 70.5,35.4 70.1,35.4 69.8,35.5 69.5,35.6 69.2,35.7 68.9,35.9 68.6,36 
		68.3,36.2 68.1,36.5 67.8,36.7 67.6,37 67.4,37.2 67.2,37.5 67.1,37.8 67,38.1 66.9,38.5 66.8,38.8 66.8,39.1 66.7,39.5 66.7,46.1 
		66.8,46.4 66.8,46.8 66.9,47.1 67,47.4 67.1,47.7 67.2,48 67.4,48.3 67.6,48.6 67.8,48.9 68.1,49.1 68.3,49.3 68.6,49.5 68.9,49.7 
		69.2,49.8 69.5,50 69.8,50.1 70.1,50.1 70.5,50.2 70.8,50.2 78.2,50.2 78.2,51.8 70.8,51.8 70.3,51.8 69.8,51.7 69.4,51.6 
		68.9,51.5 68.5,51.3 68.1,51.1 67.7,50.9 67.3,50.6 66.9,50.3 66.6,50 66.3,49.6 66,49.2 65.8,48.8 65.6,48.4 65.4,47.9 65.3,47.5 
		65.2,47 65.1,46.6 65.1,46.1 65.1,39.4 65.1,39 65.2,38.5 65.3,38 65.4,37.6 65.6,37.1 65.8,36.7 66.1,36.3 66.3,35.9 66.6,35.6 
		67,35.2 67.3,34.9 67.7,34.7 68.1,34.4 68.6,34.2 69,34 69.5,33.9 69.9,33.8 70.4,33.8 70.8,33.7 75.8,33.7 76.2,33.8 76.7,33.8 
		77.2,33.9 77.6,34.1 78,34.2 78.5,34.5 78.9,34.7 79.3,35 79.6,35.3 79.9,35.6 80.3,36 80.5,36.4 80.8,36.8 81,37.2 81.1,37.6 
		81.3,38.1 81.4,38.6 81.4,39 81.4,39.5 81.4,48.1 81.5,48.8 81.5,49.5 81.6,50.1 81.7,50.8 81.9,51.5 82,52.1 82.2,52.8 82.5,53.4 
		82.8,54 83.1,54.6 83.4,55.2 83.8,55.8 84.2,56.4 84.6,56.9 85,57.4 85.5,57.9 86,58.4 86.5,58.8 87,59.2 87.6,59.6 88.2,60 
		88.8,60.3 89.4,60.6 90,60.9 90.6,61.2 91.3,61.4 91.9,61.6 92.6,61.7 93.3,61.8 93.9,61.9 94.6,62 95.3,62 109,62 	"/>
</g>
<g>
	<polygon class="st0" points="84.1,63.6 69.5,63.6 68.8,63.6 68,63.5 67.2,63.4 66.5,63.3 65.7,63.1 65,62.9 64.3,62.7 63.6,62.4 
		62.9,62.1 62.2,61.8 61.5,61.4 60.9,61 60.3,60.5 59.7,60.1 59.1,59.6 58.6,59 58,58.5 57.5,57.9 57.1,57.3 56.6,56.7 56.2,56 
		55.9,55.4 55.5,54.7 55.2,54 54.9,53.3 54.7,52.6 54.5,51.8 54.3,51.1 54.2,50.3 54.1,49.6 54,48.8 54,48.1 54,39.5 54,39.1 
		54,38.8 53.9,38.5 53.8,38.1 53.7,37.8 53.5,37.5 53.4,37.2 53.2,37 53,36.7 52.7,36.5 52.5,36.2 52.2,36 51.9,35.9 51.6,35.7 
		51.3,35.6 51,35.5 50.6,35.4 50.3,35.4 49.9,35.4 41.8,35.4 41.8,33.7 50,33.7 50.5,33.8 50.9,33.8 51.4,33.9 51.8,34.1 52.3,34.2 
		52.7,34.5 53.1,34.7 53.5,35 53.8,35.3 54.2,35.6 54.5,36 54.8,36.4 55,36.8 55.2,37.2 55.4,37.6 55.5,38.1 55.6,38.6 55.6,39 
		55.7,39.5 55.7,48.1 55.7,48.8 55.7,49.5 55.8,50.1 55.9,50.8 56.1,51.5 56.3,52.1 56.5,52.8 56.7,53.4 57,54 57.3,54.6 57.6,55.2 
		58,55.8 58.4,56.4 58.8,56.9 59.3,57.4 59.7,57.9 60.2,58.4 60.7,58.8 61.3,59.2 61.8,59.6 62.4,60 63,60.3 63.6,60.6 64.2,60.9 
		64.9,61.2 65.5,61.4 66.2,61.6 66.8,61.7 67.5,61.8 68.2,61.9 68.9,62 69.5,62 84.1,62 	"/>
</g>
<g>
	<polygon class="st0" points="50,23.1 41.7,23.1 41.7,21.5 49.9,21.5 50.3,21.5 50.6,21.4 51,21.4 51.3,21.3 51.6,21.2 51.9,21 
		52.2,20.8 52.5,20.6 52.7,20.4 53,20.2 53.2,19.9 53.4,19.7 53.5,19.4 53.7,19.1 53.8,18.7 53.9,18.4 54,18.1 54,17.8 54,17.4 
		54,2.1 55.7,2.1 55.7,17.5 55.6,17.9 55.6,18.4 55.5,18.9 55.3,19.3 55.2,19.8 55,20.2 54.7,20.6 54.4,21 54.1,21.3 53.8,21.6 
		53.4,22 53.1,22.2 52.6,22.5 52.2,22.7 51.8,22.8 51.3,23 50.9,23.1 50.4,23.1 	"/>
</g>
<g>
	<polygon class="st0" points="75.9,23.1 70.8,23.1 70.3,23.1 69.8,23 69.4,23 68.9,22.8 68.5,22.6 68.1,22.4 67.7,22.2 67.3,21.9 
		66.9,21.6 66.6,21.3 66.3,20.9 66,20.5 65.8,20.1 65.6,19.7 65.4,19.2 65.3,18.8 65.2,18.3 65.1,17.9 65.1,17.4 65.1,2.1 66.7,2.1 
		66.7,17.4 66.8,17.8 66.8,18.1 66.9,18.4 67,18.7 67.1,19.1 67.2,19.4 67.4,19.7 67.6,19.9 67.8,20.2 68.1,20.4 68.3,20.6 
		68.6,20.8 68.9,21 69.2,21.2 69.5,21.3 69.8,21.4 70.2,21.4 70.5,21.5 70.8,21.5 75.8,21.5 76.2,21.5 76.5,21.4 76.8,21.4 
		77.2,21.3 77.5,21.2 77.8,21 78.1,20.8 78.3,20.6 78.6,20.4 78.8,20.2 79.1,19.9 79.2,19.7 79.4,19.4 79.6,19.1 79.7,18.8 
		79.8,18.4 79.9,18.1 79.9,17.8 79.9,17.4 79.9,2.1 81.5,2.1 81.5,17.5 81.5,17.9 81.5,18.4 81.4,18.8 81.2,19.3 81.1,19.8 
		80.8,20.2 80.6,20.6 80.3,21 80,21.3 79.7,21.6 79.3,22 78.9,22.2 78.5,22.5 78.1,22.7 77.7,22.8 77.2,23 76.7,23.1 76.3,23.1 	"/>
</g>
<g>
	<polygon class="st0" points="104.3,23.1 96.6,23.1 96.1,23.1 95.6,23 95.2,23 94.7,22.8 94.3,22.6 93.8,22.4 93.4,22.2 93.1,21.9 
		92.7,21.6 92.4,21.3 92.1,20.9 91.8,20.5 91.5,20.1 91.3,19.7 91.2,19.2 91,18.8 91,18.3 90.9,17.9 90.9,17.4 90.9,2.1 92.5,2.1 
		92.5,17.4 92.5,17.8 92.6,18.1 92.6,18.4 92.7,18.7 92.9,19.1 93,19.4 93.2,19.7 93.4,19.9 93.6,20.2 93.8,20.4 94.1,20.6 
		94.4,20.8 94.6,21 95,21.2 95.3,21.3 95.6,21.4 95.9,21.4 96.3,21.5 96.6,21.5 104.3,21.5 	"/>
</g>
<g>
	<polygon class="st0" points="52.2,53.2 43.7,53.2 43.3,53.2 42.8,53.1 42.3,53 41.9,52.9 41.4,52.7 41,52.5 40.6,52.3 40.2,52 
		39.9,51.7 39.5,51.4 39.2,51 39,50.6 38.7,50.2 38.5,49.8 38.3,49.3 38.2,48.9 38.1,48.4 38.1,47.9 38.1,47.5 38.1,15.7 38,15 
		38,14.4 37.9,13.7 37.8,13 37.6,12.3 37.5,11.7 37.2,11 37,10.4 36.7,9.8 36.4,9.2 36.1,8.6 35.7,8 35.3,7.5 34.9,6.9 34.5,6.4 
		34,5.9 33.5,5.4 33,5 32.4,4.6 31.9,4.2 31.3,3.8 30.7,3.5 30.1,3.2 29.5,2.9 28.8,2.7 28.2,2.4 27.5,2.3 26.9,2.1 26.2,2 
		25.5,1.9 24.9,1.9 24.2,1.8 14.7,1.8 14.7,0.2 24.2,0.2 25,0.2 25.7,0.3 26.5,0.4 27.2,0.5 28,0.7 28.7,0.9 29.4,1.1 30.1,1.4 
		30.8,1.7 31.5,2 32.2,2.4 32.8,2.8 33.4,3.3 34,3.7 34.6,4.2 35.2,4.8 35.7,5.3 36.2,5.9 36.6,6.5 37.1,7.1 37.5,7.8 37.9,8.4 
		38.2,9.1 38.5,9.8 38.8,10.5 39,11.2 39.2,12 39.4,12.7 39.5,13.5 39.6,14.2 39.7,15 39.7,15.7 39.7,47.5 39.7,47.9 39.7,48.2 
		39.8,48.5 39.9,48.8 40,49.1 40.2,49.5 40.3,49.7 40.5,50 40.8,50.3 41,50.5 41.3,50.7 41.5,50.9 41.8,51.1 42.1,51.2 42.4,51.4 
		42.8,51.5 43.1,51.5 43.4,51.6 43.8,51.6 52.2,51.6 	"/>
</g>
<g>
	<polygon class="st0" points="53.1,55.7 43.7,55.7 43.2,55.7 42.6,55.6 42.1,55.5 41.5,55.4 41,55.2 40.5,55 40,54.7 39.5,54.5 
		39,54.2 38.6,53.8 38.2,53.5 37.8,53.1 37.4,52.6 37.1,52.2 36.8,51.7 36.5,51.2 36.3,50.7 36.1,50.2 35.9,49.7 35.8,49.1 
		35.7,48.6 35.6,48 35.6,47.5 35.6,15.7 35.6,15.1 35.5,14.5 35.5,13.9 35.3,13.3 35.2,12.8 35,12.2 34.8,11.6 34.6,11.1 34.4,10.5 
		34.1,10 33.8,9.5 33.4,9 33.1,8.5 32.7,8.1 32.3,7.6 31.8,7.2 31.4,6.8 30.9,6.5 30.4,6.1 29.9,5.8 29.4,5.5 28.8,5.3 28.3,5 
		27.7,4.8 27.1,4.7 26.6,4.5 26,4.4 25.4,4.4 24.8,4.3 24.2,4.3 14.7,4.3 14.7,2.7 24.2,2.7 24.9,2.7 25.6,2.7 26.2,2.8 26.9,2.9 
		27.6,3.1 28.2,3.3 28.9,3.5 29.5,3.8 30.1,4.1 30.7,4.4 31.3,4.8 31.9,5.2 32.4,5.6 32.9,6 33.4,6.5 33.9,7 34.3,7.5 34.8,8.1 
		35.1,8.6 35.5,9.2 35.8,9.8 36.1,10.4 36.4,11.1 36.6,11.7 36.8,12.4 37,13 37.1,13.7 37.2,14.4 37.2,15.1 37.2,15.7 37.2,47.5 
		37.3,48 37.3,48.4 37.4,48.8 37.5,49.3 37.6,49.7 37.8,50.1 38,50.5 38.2,50.9 38.4,51.3 38.7,51.6 39,52 39.3,52.3 39.6,52.6 
		40,52.8 40.4,53.1 40.8,53.3 41.2,53.5 41.6,53.7 42,53.8 42.4,53.9 42.9,54 43.3,54 43.8,54 53.1,54 	"/>
</g>
<g>
	<polygon class="st0" points="28.3,62.6 15.9,62.6 15.2,62.5 14.5,62.5 13.8,62.4 13.1,62.3 12.5,62.1 11.8,61.9 11.2,61.7 
		10.6,61.4 9.9,61.1 9.3,60.8 8.8,60.4 8.2,60 7.7,59.6 7.1,59.2 6.6,58.7 6.2,58.2 5.7,57.7 5.3,57.2 4.9,56.6 4.6,56 4.2,55.4 
		3.9,54.8 3.7,54.2 3.5,53.5 3.3,52.9 3.1,52.2 3,51.5 2.9,50.8 2.8,50.2 2.8,49.5 2.8,37.5 2.8,36.8 2.9,36.1 3,35.5 3.1,34.8 
		3.3,34.1 3.5,33.5 3.7,32.8 4,32.2 4.3,31.6 4.6,31 4.9,30.4 5.3,29.8 5.7,29.3 6.2,28.8 6.7,28.3 7.2,27.8 7.7,27.4 8.2,26.9 
		8.8,26.6 9.4,26.2 10,25.9 10.6,25.6 11.2,25.3 11.9,25.1 12.5,24.9 13.2,24.7 13.9,24.6 14.5,24.5 15.2,24.5 15.9,24.5 20.8,24.5 
		21.2,24.4 21.7,24.4 22.1,24.3 22.6,24.2 23,24.1 23.4,23.9 23.8,23.7 24.2,23.5 24.6,23.3 24.9,23 25.2,22.7 25.6,22.4 25.9,22 
		26.1,21.7 26.4,21.3 26.6,20.9 26.8,20.5 26.9,20.1 27.1,19.7 27.2,19.3 27.3,18.8 27.3,18.4 27.3,17.9 27.3,17.5 27.3,17 
		27.2,16.6 27.1,16.2 26.9,15.7 26.8,15.3 26.6,14.9 26.4,14.5 26.1,14.2 25.9,13.8 25.6,13.5 25.2,13.2 24.9,12.9 24.6,12.6 
		24.2,12.4 23.8,12.1 23.4,11.9 23,11.8 22.6,11.6 22.1,11.5 21.7,11.5 21.2,11.4 20.8,11.4 14.7,11.4 14.7,9.8 20.8,9.8 21.4,9.8 
		21.9,9.8 22.5,9.9 23,10.1 23.6,10.2 24.1,10.5 24.6,10.7 25.1,11 25.5,11.3 26,11.6 26.4,12 26.8,12.4 27.1,12.8 27.5,13.2 
		27.8,13.7 28,14.2 28.3,14.7 28.5,15.2 28.7,15.8 28.8,16.3 28.9,16.9 28.9,17.4 29,17.9 28.9,18.5 28.9,19.1 28.8,19.6 28.6,20.2 
		28.5,20.7 28.3,21.2 28,21.7 27.7,22.2 27.4,22.7 27.1,23.1 26.7,23.5 26.3,23.9 25.9,24.3 25.5,24.6 25,24.9 24.5,25.2 24,25.4 
		23.5,25.6 23,25.8 22.4,25.9 21.9,26 21.3,26.1 20.8,26.1 15.9,26.1 15.3,26.1 14.7,26.2 14.1,26.2 13.5,26.3 12.9,26.5 12.4,26.7 
		11.8,26.9 11.2,27.1 10.7,27.3 10.2,27.6 9.7,27.9 9.2,28.3 8.7,28.6 8.2,29 7.8,29.4 7.4,29.9 7,30.3 6.6,30.8 6.3,31.3 6,31.8 
		5.7,32.3 5.4,32.9 5.2,33.4 5,34 4.9,34.6 4.7,35.1 4.6,35.7 4.5,36.3 4.5,36.9 4.5,37.5 4.5,49.5 4.5,50.1 4.5,50.7 4.6,51.3 
		4.7,51.9 4.9,52.4 5,53 5.2,53.6 5.4,54.1 5.7,54.7 6,55.2 6.3,55.7 6.6,56.2 7,56.7 7.4,57.1 7.8,57.6 8.2,58 8.7,58.4 9.2,58.7 
		9.7,59.1 10.2,59.4 10.7,59.7 11.2,59.9 11.8,60.2 12.4,60.4 12.9,60.5 13.5,60.7 14.1,60.8 14.7,60.9 15.3,60.9 15.9,60.9 
		28.3,60.9 	"/>
</g>
<g>
	<polygon class="st0" points="55,62.6 41.5,62.6 40.8,62.5 40.1,62.5 39.5,62.4 38.8,62.3 38.1,62.1 37.5,61.9 36.8,61.7 36.2,61.4 
		35.6,61.1 35,60.8 34.4,60.4 33.8,60 33.3,59.6 32.8,59.2 32.3,58.7 31.8,58.2 31.4,57.7 31,57.2 30.6,56.6 30.2,56 29.9,55.4 
		29.6,54.8 29.3,54.2 29.1,53.5 28.9,52.9 28.8,52.2 28.6,51.5 28.5,50.8 28.5,50.2 28.5,49.5 28.5,39.4 28.5,38.9 28.4,38.5 
		28.3,38.1 28.2,37.6 28.1,37.2 27.9,36.8 27.7,36.4 27.5,36 27.3,35.6 27,35.3 26.7,34.9 26.4,34.6 26.1,34.3 25.7,34.1 25.3,33.8 
		25,33.6 24.5,33.4 24.1,33.2 23.7,33.1 23.3,33 22.8,32.9 22.4,32.9 21.9,32.9 17.1,32.9 16.6,32.9 16.2,32.9 15.7,33 15.3,33.1 
		14.9,33.2 14.5,33.4 14,33.6 13.7,33.8 13.3,34.1 12.9,34.3 12.6,34.6 12.3,34.9 12,35.3 11.7,35.6 11.5,36 11.3,36.4 11.1,36.8 
		10.9,37.2 10.8,37.6 10.7,38.1 10.6,38.5 10.5,38.9 10.5,39.4 10.5,47.5 10.5,48 10.6,48.4 10.7,48.8 10.8,49.3 10.9,49.7 
		11.1,50.1 11.3,50.5 11.5,50.9 11.7,51.3 12,51.6 12.3,52 12.6,52.3 12.9,52.6 13.3,52.8 13.7,53.1 14,53.3 14.5,53.5 14.9,53.7 
		15.3,53.8 15.7,53.9 16.2,54 16.6,54 17.1,54 25.1,54 25.1,55.7 17,55.7 16.5,55.7 15.9,55.6 15.4,55.5 14.8,55.4 14.3,55.2 
		13.8,55 13.3,54.7 12.8,54.5 12.3,54.2 11.9,53.8 11.5,53.5 11.1,53.1 10.7,52.6 10.4,52.2 10.1,51.7 9.8,51.2 9.6,50.7 9.4,50.2 
		9.2,49.7 9.1,49.1 9,48.6 8.9,48 8.9,47.5 8.9,39.4 8.9,38.8 9,38.3 9.1,37.7 9.2,37.2 9.4,36.6 9.6,36.1 9.8,35.6 10.1,35.1 
		10.4,34.7 10.7,34.2 11.1,33.8 11.5,33.4 11.9,33 12.4,32.7 12.8,32.4 13.3,32.1 13.8,31.9 14.3,31.7 14.9,31.5 15.4,31.4 16,31.3 
		16.5,31.2 17.1,31.2 22,31.2 22.5,31.2 23.1,31.3 23.6,31.4 24.2,31.5 24.7,31.7 25.2,31.9 25.7,32.2 26.2,32.4 26.7,32.7 
		27.1,33.1 27.5,33.4 27.9,33.8 28.3,34.3 28.6,34.7 28.9,35.2 29.2,35.7 29.4,36.2 29.6,36.7 29.8,37.2 29.9,37.8 30,38.3 
		30.1,38.9 30.1,39.4 30.1,49.5 30.1,50.1 30.2,50.7 30.2,51.3 30.4,51.9 30.5,52.4 30.7,53 30.9,53.6 31.1,54.1 31.4,54.7 
		31.6,55.2 32,55.7 32.3,56.2 32.7,56.7 33,57.1 33.5,57.6 33.9,58 34.3,58.4 34.8,58.7 35.3,59.1 35.8,59.4 36.4,59.7 36.9,59.9 
		37.4,60.2 38,60.4 38.6,60.5 39.2,60.7 39.7,60.8 40.3,60.9 40.9,60.9 41.5,60.9 55,60.9 	"/>
</g>
<g>
	<polygon class="st0" points="50,25.6 41.7,25.6 41.7,24 49.9,24 50.4,23.9 50.8,23.9 51.3,23.8 51.7,23.7 52.1,23.6 52.5,23.4 
		53,23.2 53.3,23 53.7,22.8 54.1,22.5 54.4,22.2 54.7,21.9 55,21.5 55.3,21.2 55.5,20.8 55.7,20.4 55.9,20 56.1,19.6 56.2,19.2 
		56.3,18.7 56.4,18.3 56.5,17.9 56.5,17.4 56.5,2.1 58.1,2.1 58.1,17.5 58.1,18 58,18.6 57.9,19.1 57.8,19.7 57.6,20.2 57.4,20.7 
		57.2,21.2 56.9,21.7 56.6,22.2 56.3,22.6 55.9,23 55.5,23.4 55.1,23.8 54.6,24.1 54.2,24.4 53.7,24.7 53.2,24.9 52.7,25.1 
		52.1,25.3 51.6,25.4 51,25.5 50.5,25.6 	"/>
</g>
<g>
	<polygon class="st0" points="75.9,25.6 70.8,25.6 70.2,25.6 69.7,25.5 69.1,25.4 68.6,25.3 68.1,25.1 67.5,24.9 67,24.7 66.6,24.4 
		66.1,24.1 65.7,23.7 65.2,23.4 64.8,23 64.5,22.5 64.1,22.1 63.8,21.6 63.6,21.1 63.3,20.6 63.1,20.1 63,19.6 62.8,19 62.7,18.5 
		62.7,17.9 62.7,17.4 62.7,2.1 64.3,2.1 64.3,17.4 64.3,17.9 64.4,18.3 64.4,18.7 64.5,19.2 64.7,19.6 64.8,20 65,20.4 65.2,20.8 
		65.5,21.2 65.8,21.5 66.1,21.9 66.4,22.2 66.7,22.5 67.1,22.8 67.4,23 67.8,23.2 68.2,23.4 68.6,23.6 69.1,23.7 69.5,23.8 
		69.9,23.9 70.4,23.9 70.8,24 75.8,24 76.3,23.9 76.7,23.9 77.2,23.8 77.6,23.7 78,23.6 78.4,23.4 78.8,23.2 79.2,23 79.6,22.8 
		80,22.5 80.3,22.2 80.6,21.9 80.9,21.5 81.2,21.2 81.4,20.8 81.6,20.4 81.8,20 82,19.6 82.1,19.2 82.2,18.7 82.3,18.3 82.3,17.9 
		82.4,17.4 82.4,2.1 84,2.1 84,17.5 84,18 83.9,18.6 83.8,19.1 83.7,19.7 83.5,20.2 83.3,20.7 83.1,21.2 82.8,21.7 82.5,22.1 
		82.1,22.6 81.8,23 81.4,23.4 81,23.8 80.5,24.1 80,24.4 79.6,24.7 79.1,24.9 78.5,25.1 78,25.3 77.5,25.4 76.9,25.5 76.4,25.6 	"/>
</g>
<g>
	<polygon class="st0" points="82.5,61.2 69.5,61.2 68.8,61.1 68.2,61.1 67.5,61 66.8,60.9 66.1,60.7 65.5,60.5 64.8,60.3 64.2,60 
		63.6,59.7 63,59.4 62.4,59 61.8,58.6 61.3,58.2 60.8,57.8 60.3,57.3 59.8,56.8 59.4,56.3 59,55.8 58.6,55.2 58.2,54.6 57.9,54 
		57.6,53.4 57.3,52.8 57.1,52.1 56.9,51.5 56.8,50.8 56.6,50.1 56.6,49.4 56.5,48.8 56.5,48.1 56.5,39.5 56.5,39 56.4,38.6 
		56.3,38.1 56.2,37.7 56.1,37.3 55.9,36.9 55.7,36.5 55.5,36.1 55.3,35.7 55,35.3 54.7,35 54.4,34.7 54.1,34.4 53.7,34.1 53.3,33.9 
		53,33.7 52.6,33.5 52.1,33.3 51.7,33.2 51.3,33.1 50.8,33 50.4,32.9 49.9,32.9 41.8,32.9 41.8,31.3 50,31.3 50.5,31.3 51.1,31.4 
		51.6,31.5 52.2,31.6 52.7,31.8 53.2,32 53.7,32.2 54.2,32.5 54.7,32.8 55.1,33.1 55.5,33.5 55.9,33.9 56.3,34.3 56.6,34.8 
		56.9,35.2 57.2,35.7 57.4,36.2 57.7,36.8 57.8,37.3 57.9,37.8 58,38.4 58.1,38.9 58.1,39.5 58.1,48.1 58.1,48.7 58.2,49.3 
		58.3,49.9 58.4,50.5 58.5,51 58.7,51.6 58.9,52.2 59.1,52.7 59.4,53.3 59.6,53.8 60,54.3 60.3,54.8 60.7,55.3 61,55.7 61.5,56.2 
		61.9,56.6 62.4,57 62.8,57.3 63.3,57.7 63.8,58 64.4,58.3 64.9,58.5 65.4,58.8 66,59 66.6,59.1 67.2,59.3 67.8,59.4 68.3,59.5 
		68.9,59.5 69.6,59.5 82.5,59.5 	"/>
</g>
<g>
	<polygon class="st0" points="107.6,61.2 95.3,61.2 94.6,61.1 93.9,61.1 93.2,61 92.6,60.9 91.9,60.7 91.3,60.5 90.6,60.3 90,60 
		89.4,59.7 88.8,59.4 88.2,59 87.6,58.6 87.1,58.2 86.5,57.8 86.1,57.3 85.6,56.8 85.2,56.3 84.7,55.7 84.3,55.2 84,54.6 83.7,54 
		83.4,53.4 83.1,52.8 82.9,52.1 82.7,51.4 82.5,50.8 82.4,50.1 82.3,49.4 82.3,48.8 82.2,48.2 82.2,39.5 82.2,39 82.2,38.6 
		82.1,38.1 82,37.7 81.9,37.3 81.7,36.9 81.5,36.5 81.3,36.1 81.1,35.7 80.8,35.3 80.5,35 80.2,34.7 79.8,34.4 79.5,34.1 79.1,33.9 
		78.7,33.7 78.3,33.5 77.9,33.3 77.5,33.2 77,33.1 76.6,33 76.2,32.9 75.7,32.9 70.8,32.9 70.4,32.9 69.9,33 69.5,33.1 69.1,33.2 
		68.6,33.3 68.2,33.5 67.8,33.7 67.4,33.9 67.1,34.1 66.7,34.4 66.4,34.7 66,35 65.8,35.3 65.5,35.7 65.2,36.1 65,36.5 64.8,36.9 
		64.7,37.3 64.5,37.7 64.4,38.1 64.4,38.6 64.3,39 64.3,39.5 64.3,46.1 64.3,46.6 64.4,47 64.4,47.4 64.5,47.9 64.7,48.3 64.8,48.7 
		65,49.1 65.2,49.5 65.5,49.9 65.8,50.2 66.1,50.6 66.4,50.9 66.7,51.2 67.1,51.4 67.4,51.7 67.8,51.9 68.2,52.1 68.6,52.3 
		69.1,52.4 69.5,52.5 69.9,52.6 70.4,52.6 70.8,52.6 79.1,52.6 79.1,54.3 70.8,54.3 70.2,54.2 69.7,54.2 69.1,54.1 68.6,54 
		68.1,53.8 67.5,53.6 67,53.3 66.6,53.1 66.1,52.8 65.7,52.4 65.2,52.1 64.8,51.7 64.5,51.2 64.1,50.8 63.8,50.3 63.6,49.8 
		63.3,49.3 63.1,48.8 63,48.3 62.8,47.7 62.7,47.2 62.7,46.6 62.7,46.1 62.7,39.4 62.7,38.9 62.7,38.3 62.8,37.8 63,37.2 63.1,36.7 
		63.3,36.2 63.6,35.7 63.9,35.2 64.2,34.7 64.5,34.3 64.9,33.9 65.3,33.5 65.7,33.1 66.1,32.8 66.6,32.5 67.1,32.2 67.6,32 
		68.1,31.8 68.7,31.6 69.2,31.5 69.7,31.4 70.3,31.3 70.8,31.3 75.8,31.3 76.3,31.3 76.9,31.4 77.4,31.5 77.9,31.6 78.5,31.8 79,32 
		79.5,32.2 80,32.5 80.4,32.8 80.9,33.2 81.3,33.5 81.7,33.9 82.1,34.3 82.4,34.8 82.7,35.2 83,35.7 83.2,36.2 83.4,36.7 83.6,37.3 
		83.7,37.8 83.8,38.4 83.9,38.9 83.9,39.5 83.9,48.1 83.9,48.7 83.9,49.3 84,49.9 84.1,50.5 84.3,51 84.4,51.6 84.6,52.2 84.9,52.7 
		85.1,53.3 85.4,53.8 85.7,54.3 86.1,54.8 86.4,55.3 86.8,55.7 87.2,56.2 87.7,56.6 88.1,57 88.6,57.3 89.1,57.7 89.6,58 90.1,58.3 
		90.7,58.5 91.2,58.8 91.8,59 92.4,59.1 92.9,59.3 93.5,59.4 94.1,59.5 94.7,59.5 95.3,59.5 107.6,59.5 	"/>
</g>
<g>
	<polygon class="st0" points="104.3,25.6 96.6,25.6 96,25.6 95.4,25.5 94.9,25.4 94.4,25.3 93.8,25.1 93.3,24.9 92.8,24.7 
		92.3,24.4 91.9,24.1 91.4,23.7 91,23.4 90.6,23 90.2,22.5 89.9,22.1 89.6,21.6 89.3,21.2 89.1,20.6 88.9,20.1 88.7,19.6 88.6,19.1 
		88.5,18.5 88.4,18 88.4,17.4 88.4,2.1 90.1,2.1 90.1,17.4 90.1,17.9 90.1,18.3 90.2,18.7 90.3,19.2 90.4,19.6 90.6,20 90.8,20.4 
		91,20.8 91.3,21.2 91.5,21.5 91.8,21.9 92.1,22.2 92.5,22.5 92.8,22.8 93.2,23 93.6,23.2 94,23.4 94.4,23.6 94.8,23.7 95.3,23.8 
		95.7,23.9 96.1,23.9 96.6,24 104.3,24 	"/>
</g>
<g>
	<polygon class="st0" points="105,54.3 96.3,54.3 95.8,54.2 95.2,54.2 94.7,54.1 94.1,54 93.6,53.8 93.1,53.6 92.6,53.3 92.1,53.1 
		91.6,52.8 91.2,52.4 90.8,52.1 90.4,51.7 90,51.2 89.7,50.8 89.4,50.3 89.1,49.8 88.9,49.3 88.7,48.8 88.5,48.3 88.4,47.7 
		88.3,47.2 88.2,46.6 88.2,46.1 88.2,39.9 88.2,39.4 88.3,38.4 88.4,37.8 88.5,37.2 88.7,36.7 88.9,36.2 89.1,35.7 89.4,35.2 
		89.7,34.7 90,34.3 90.4,33.9 90.8,33.5 91.2,33.1 91.7,32.8 92.1,32.5 92.6,32.2 93.1,32 93.7,31.8 94.2,31.6 94.7,31.5 95.3,31.4 
		95.8,31.3 96.4,31.3 104.2,31.3 104.2,32.9 96.4,32.9 95.9,32.9 95.5,33 95,33.1 94.6,33.2 94.2,33.3 93.8,33.5 93.4,33.7 93,33.9 
		92.6,34.1 92.2,34.4 91.9,34.7 91.6,35 91.3,35.3 91,35.7 90.8,36.1 90.6,36.5 90.4,36.9 90.2,37.3 90.1,37.7 90,38.1 89.9,38.6 
		89.8,39.9 89.8,46.1 89.8,46.6 89.9,47 90,47.4 90.1,47.9 90.2,48.3 90.4,48.7 90.6,49.1 90.8,49.5 91,49.9 91.3,50.2 91.6,50.6 
		91.9,50.9 92.2,51.2 92.6,51.4 93,51.7 93.4,51.9 93.8,52.1 94.2,52.3 94.6,52.4 95,52.5 95.5,52.6 95.9,52.6 96.4,52.6 105,52.6 	
		"/>
</g>
<g>
	<polygon class="st0" points="56.5,65 41.5,65 40.8,65 40,64.9 39.2,64.8 38.5,64.7 37.7,64.5 37,64.3 36.3,64.1 35.6,63.8 
		34.9,63.5 34.2,63.2 33.6,62.8 32.9,62.4 32.3,61.9 31.7,61.5 31.1,61 30.6,60.4 30,59.9 29.5,59.3 29.1,58.7 28.6,58.1 28.2,57.4 
		27.9,56.8 27.5,56.1 27.2,55.4 26.9,54.7 26.7,54 26.5,53.2 26.3,52.5 26.2,51.7 26.1,51 26,50.2 26,49.5 26,39.4 26,39.1 26,38.7 
		25.9,38.4 25.8,38.1 25.7,37.7 25.5,37.4 25.4,37.2 25.2,36.9 25,36.6 24.7,36.4 24.5,36.2 24.2,36 23.9,35.8 23.6,35.7 23.3,35.5 
		22.9,35.4 22.6,35.4 22.3,35.3 21.9,35.3 17.1,35.3 16.7,35.3 16.4,35.4 16,35.4 15.7,35.5 15.4,35.7 15.1,35.8 14.8,36 14.5,36.2 
		14.3,36.4 14,36.6 13.8,36.9 13.6,37.2 13.5,37.4 13.3,37.7 13.2,38.1 13.1,38.4 13,38.7 13,39.1 13,39.4 13,47.5 13,47.8 13,48.2 
		13.1,48.5 13.2,48.8 13.3,49.1 13.5,49.5 13.6,49.7 13.8,50 14.1,50.3 14.3,50.5 14.5,50.7 14.8,50.9 15.1,51.1 15.4,51.2 
		15.7,51.4 16,51.5 16.4,51.5 16.7,51.6 17.1,51.6 24.1,51.6 24.1,53.2 17,53.2 16.5,53.2 16.1,53.1 15.6,53 15.2,52.9 14.7,52.7 
		14.3,52.5 13.9,52.3 13.5,52 13.2,51.7 12.8,51.4 12.5,51 12.3,50.6 12,50.2 11.8,49.8 11.6,49.3 11.5,48.9 11.4,48.4 11.4,47.9 
		11.3,47.5 11.3,39.4 11.4,38.9 11.4,38.4 11.5,38 11.7,37.5 11.8,37.1 12,36.6 12.3,36.2 12.6,35.8 12.9,35.5 13.2,35.2 13.6,34.9 
		14,34.6 14.4,34.3 14.8,34.1 15.2,34 15.7,33.8 16.1,33.7 16.6,33.7 17.1,33.7 22,33.7 22.4,33.7 22.9,33.8 23.4,33.9 23.8,34 
		24.3,34.2 24.7,34.4 25.1,34.6 25.5,34.9 25.8,35.2 26.2,35.5 26.5,35.9 26.7,36.3 27,36.7 27.2,37.1 27.4,37.6 27.5,38 27.6,38.5 
		27.6,39 27.7,39.4 27.7,49.5 27.7,50.2 27.7,50.9 27.8,51.5 27.9,52.2 28.1,52.9 28.3,53.5 28.5,54.2 28.7,54.8 29,55.4 29.3,56 
		29.6,56.6 30,57.2 30.4,57.8 30.8,58.3 31.3,58.8 31.7,59.3 32.2,59.8 32.7,60.2 33.3,60.6 33.8,61 34.4,61.4 35,61.7 35.6,62 
		36.2,62.3 36.9,62.6 37.5,62.8 38.2,63 38.8,63.1 39.5,63.2 40.2,63.3 40.9,63.4 41.5,63.4 56.5,63.4 	"/>
</g>
</svg>
